<?xml version="1.0" encoding="UTF-8" standalone="no"?>
<!DOCTYPE svg PUBLIC "-//W3C//DTD SVG 1.1//EN" "http://www.w3.org/Graphics/SVG/1.1/DTD/svg11.dtd">
<!-- Generated by graphviz version 2.40.1 (20161225.0304)
 -->
<!-- Title: dependencies Pages: 1 -->
<svg width="632pt" height="374pt" viewBox="0.00 0.00 632.34 373.77" xmlns="http://www.w3.org/2000/svg" xmlns:xlink="http://www.w3.org/1999/xlink">
<g id="graph0" class="graph" transform="scale(1 1) rotate(0) translate(4 369.7734)">
<title>dependencies</title>
<polygon fill="#ffffff" stroke="transparent" points="-4,4 -4,-369.7734 628.3416,-369.7734 628.3416,4 -4,4"/>
<!-- app.py -->
<g id="node1" class="node">
<title>app.py</title>
<ellipse fill="#add8e6" stroke="#add8e6" cx="357.8197" cy="-179.6613" rx="40.0437" ry="40.0437"/>
<text text-anchor="middle" x="357.8197" y="-175.4613" font-family="Arial" font-size="14.00" fill="#000000">app.py</text>
</g>
<!-- contextlib -->
<g id="node2" class="node">
<title>contextlib</title>
<ellipse fill="#add8e6" stroke="#add8e6" cx="51.8197" cy="-51.8197" rx="51.6401" ry="51.6401"/>
<text text-anchor="middle" x="51.8197" y="-47.6197" font-family="Arial" font-size="14.00" fill="#000000">contextlib</text>
</g>
<!-- app.py&#45;&gt;contextlib -->
<g id="edge1" class="edge">
<title>app.py-&gt;contextlib</title>
<path fill="none" stroke="#000000" d="M318.1157,-172.4836C267.9797,-162.2949 180.1449,-140.6416 112.8197,-103.6394 107.6708,-100.8096 102.5588,-97.501 97.6118,-93.9489"/>
<polygon fill="#000000" stroke="#000000" points="99.5509,-91.027 89.465,-87.7827 95.3264,-96.6086 99.5509,-91.027"/>
</g>
<!-- datetime -->
<g id="node3" class="node">
<title>datetime</title>
<ellipse fill="#add8e6" stroke="#add8e6" cx="169.8197" cy="-51.8197" rx="48.1264" ry="48.1264"/>
<text text-anchor="middle" x="169.8197" y="-47.6197" font-family="Arial" font-size="14.00" fill="#000000">datetime</text>
</g>
<!-- app.py&#45;&gt;datetime -->
<g id="edge2" class="edge">
<title>app.py-&gt;datetime</title>
<path fill="none" stroke="#000000" d="M322.0824,-161.582C295.0048,-147.2616 257.375,-126.0033 226.8197,-103.6394 221.9801,-100.0972 217.087,-96.206 212.3076,-92.1966"/>
<polygon fill="#000000" stroke="#000000" points="214.2599,-89.2585 204.4011,-85.3783 209.6884,-94.5596 214.2599,-89.2585"/>
</g>
<!-- flask -->
<g id="node4" class="node">
<title>flask</title>
<ellipse fill="#add8e6" stroke="#add8e6" cx="266.8197" cy="-51.8197" rx="30.777" ry="30.777"/>
<text text-anchor="middle" x="266.8197" y="-47.6197" font-family="Arial" font-size="14.00" fill="#000000">flask</text>
</g>
<!-- app.py&#45;&gt;flask -->
<g id="edge3" class="edge">
<title>app.py-&gt;flask</title>
<path fill="none" stroke="#000000" d="M334.385,-146.7389C321.0501,-128.0054 304.3789,-104.5849 290.9332,-85.6956"/>
<polygon fill="#000000" stroke="#000000" points="293.6565,-83.4859 285.006,-77.3687 287.9537,-87.5453 293.6565,-83.4859"/>
</g>
<!-- hashlib -->
<g id="node5" class="node">
<title>hashlib</title>
<ellipse fill="#add8e6" stroke="#add8e6" cx="357.8197" cy="-51.8197" rx="41.7482" ry="41.7482"/>
<text text-anchor="middle" x="357.8197" y="-47.6197" font-family="Arial" font-size="14.00" fill="#000000">hashlib</text>
</g>
<!-- app.py&#45;&gt;hashlib -->
<g id="edge4" class="edge">
<title>app.py-&gt;hashlib</title>
<path fill="none" stroke="#000000" d="M357.8197,-139.5622C357.8197,-128.235 357.8197,-115.7432 357.8197,-103.8245"/>
<polygon fill="#000000" stroke="#000000" points="361.3198,-103.5416 357.8197,-93.5416 354.3198,-103.5416 361.3198,-103.5416"/>
</g>
<!-- os -->
<g id="node6" class="node">
<title>os</title>
<ellipse fill="#add8e6" stroke="#add8e6" cx="438.8197" cy="-51.8197" rx="21.4691" ry="21.4691"/>
<text text-anchor="middle" x="438.8197" y="-47.6197" font-family="Arial" font-size="14.00" fill="#000000">os</text>
</g>
<!-- app.py&#45;&gt;os -->
<g id="edge5" class="edge">
<title>app.py-&gt;os</title>
<path fill="none" stroke="#000000" d="M380.6441,-146.6682C389.6252,-133.4225 399.9018,-117.9321 408.8197,-103.6394 413.645,-95.9059 418.6845,-87.3905 423.2253,-79.5362"/>
<polygon fill="#000000" stroke="#000000" points="426.35,-81.1228 428.284,-70.706 420.2761,-77.6431 426.35,-81.1228"/>
</g>
<!-- sqlite3 -->
<g id="node7" class="node">
<title>sqlite3</title>
<ellipse fill="#add8e6" stroke="#add8e6" cx="516.8197" cy="-51.8197" rx="38.8787" ry="38.8787"/>
<text text-anchor="middle" x="516.8197" y="-47.6197" font-family="Arial" font-size="14.00" fill="#000000">sqlite3</text>
</g>
<!-- app.py&#45;&gt;sqlite3 -->
<g id="edge6" class="edge">
<title>app.py-&gt;sqlite3</title>
<path fill="none" stroke="#000000" d="M392.2721,-158.8912C414.9486,-144.5535 444.7728,-124.3954 468.8197,-103.6394 474.0589,-99.1173 479.3209,-94.0704 484.3411,-88.9501"/>
<polygon fill="#000000" stroke="#000000" points="487.1259,-91.1013 491.4924,-81.4481 482.0591,-86.2714 487.1259,-91.1013"/>
</g>
<!-- sys -->
<g id="node8" class="node">
<title>sys</title>
<ellipse fill="#add8e6" stroke="#add8e6" cx="598.8197" cy="-51.8197" rx="25.5439" ry="25.5439"/>
<text text-anchor="middle" x="598.8197" y="-47.6197" font-family="Arial" font-size="14.00" fill="#000000">sys</text>
</g>
<!-- app.py&#45;&gt;sys -->
<g id="edge7" class="edge">
<title>app.py-&gt;sys</title>
<path fill="none" stroke="#000000" d="M397.3249,-172.9C441.9147,-163.633 514.7477,-143.3946 564.8197,-103.6394 571.7246,-98.1573 577.6925,-90.8758 582.6158,-83.5085"/>
<polygon fill="#000000" stroke="#000000" points="585.6402,-85.2722 587.9092,-74.9231 579.6817,-81.5984 585.6402,-85.2722"/>
</g>
<!-- setuptools -->
<g id="node9" class="node">
<title>setuptools</title>
<ellipse fill="#add8e6" stroke="#add8e6" cx="175.8197" cy="-310.7282" rx="55.0903" ry="55.0903"/>
<text text-anchor="middle" x="175.8197" y="-306.5282" font-family="Arial" font-size="14.00" fill="#000000">setuptools</text>
</g>
<!-- setuptools&#45;&gt;app.py -->
<g id="edge8" class="edge">
<title>setuptools-&gt;app.py</title>
<path fill="none" stroke="#000000" d="M217.496,-274.1057C225.1202,-267.7907 233.1068,-261.4189 240.8197,-255.6831 264.5864,-238.0086 292.3401,-219.8755 314.8506,-205.7537"/>
<polygon fill="#000000" stroke="#000000" points="316.8811,-208.6124 323.5163,-200.3525 313.1784,-202.6718 316.8811,-208.6124"/>
</g>
<!-- Werkzeug -->
<g id="node10" class="node">
<title>Werkzeug</title>
<ellipse fill="#add8e6" stroke="#add8e6" cx="303.8197" cy="-310.7282" rx="54.4932" ry="54.4932"/>
<text text-anchor="middle" x="303.8197" y="-306.5282" font-family="Arial" font-size="14.00" fill="#000000">Werkzeug</text>
</g>
<!-- Werkzeug&#45;&gt;app.py -->
<g id="edge9" class="edge">
<title>Werkzeug-&gt;app.py</title>
<path fill="none" stroke="#000000" d="M324.6975,-260.0543C329.2885,-248.9113 334.1287,-237.1632 338.6486,-226.1929"/>
<polygon fill="#000000" stroke="#000000" points="341.9504,-227.3665 342.5237,-216.7872 335.4782,-224.6999 341.9504,-227.3665"/>
</g>
<!-- Jinja2 -->
<g id="node11" class="node">
<title>Jinja2</title>
<ellipse fill="#add8e6" stroke="#add8e6" cx="412.8197" cy="-310.7282" rx="36.0129" ry="36.0129"/>
<text text-anchor="middle" x="412.8197" y="-306.5282" font-family="Arial" font-size="14.00" fill="#000000">Jinja2</text>
</g>
<!-- Jinja2&#45;&gt;app.py -->
<g id="edge10" class="edge">
<title>Jinja2-&gt;app.py</title>
<path fill="none" stroke="#000000" d="M398.6558,-276.9752C392.2171,-261.6314 384.4913,-243.2206 377.5008,-226.5619"/>
<polygon fill="#000000" stroke="#000000" points="380.5819,-224.8591 373.4851,-216.9924 374.1272,-227.5677 380.5819,-224.8591"/>
</g>
<!-- Flask -->
<g id="node12" class="node">
<title>Flask</title>
<ellipse fill="#add8e6" stroke="#add8e6" cx="500.8197" cy="-310.7282" rx="34.2084" ry="34.2084"/>
<text text-anchor="middle" x="500.8197" y="-306.5282" font-family="Arial" font-size="14.00" fill="#000000">Flask</text>
</g>
<!-- Flask&#45;&gt;app.py -->
<g id="edge11" class="edge">
<title>Flask-&gt;app.py</title>
<path fill="none" stroke="#000000" d="M481.1351,-282.6828C474.2238,-273.6458 466.1055,-263.8606 457.8197,-255.6831 440.1867,-238.2804 418.5112,-221.3526 399.8533,-207.9052"/>
<polygon fill="#000000" stroke="#000000" points="401.6974,-204.9219 391.5185,-201.9824 397.6426,-210.628 401.6974,-204.9219"/>
</g>
</g>
</svg>